HIERARCHY
ROOT Hips
{
	OFFSET 0.000000 0.000000 0.000000
	CHANNELS 6 Xposition Yposition Zposition Xrotation Yrotation Zrotation
	JOINT LeftUpLeg_virtual
	{
		OFFSET 0.000000 0.000000 0.000000
		CHANNELS 3 Xrotation Yrotation Zrotation
		JOINT LeftUpLeg
		{
			OFFSET 10.205400 -3.823500 0.155100
			CHANNELS 3 Xrotation Yrotation Zrotation
			JOINT LeftLeg
			{
				OFFSET 0.708757 -12.982077 0.567790
				CHANNELS 3 Xrotation Yrotation Zrotation
				JOINT LeftFoot
				{
					OFFSET -0.708756 -10.717838 -2.184338
					CHANNELS 3 Xrotation Yrotation Zrotation
					JOINT LeftToeBase
					{
						OFFSET 0.108149 -7.191104 7.560241
						CHANNELS 3 Xrotation Yrotation Zrotation
						JOINT LeftToe_End
						{
							OFFSET 0.070230 0.081724 4.490308
							CHANNELS 3 Xrotation Yrotation Zrotation
							End Site
							{
								OFFSET 0 0 0
							}
						}
					}
				}
			}
		}
	}
	JOINT RightUpLeg_virtual
	{
		OFFSET 0.000000 0.000000 0.000000
		CHANNELS 3 Xrotation Yrotation Zrotation
		JOINT RightUpLeg
		{
			OFFSET -10.205400 -3.823500 0.005500
			CHANNELS 3 Xrotation Yrotation Zrotation
			JOINT RightLeg
			{
				OFFSET -0.708756 -12.982134 0.610632
				CHANNELS 3 Xrotation Yrotation Zrotation
				JOINT RightFoot
				{
					OFFSET 0.708754 -10.717769 -1.945823
					CHANNELS 3 Xrotation Yrotation Zrotation
					JOINT RightToeBase
					{
						OFFSET -0.108140 -7.191069 7.372968
						CHANNELS 3 Xrotation Yrotation Zrotation
						JOINT RightToe_End
						{
							OFFSET -0.070227 0.081735 4.479403
							CHANNELS 3 Xrotation Yrotation Zrotation
							End Site
							{
								OFFSET 0 0 0
							}
						}
					}
				}
			}
		}
	}
	JOINT Spine_virtual
	{
		OFFSET 0.000000 0.000000 0.000000
		CHANNELS 3 Xrotation Yrotation Zrotation
		JOINT Spine
		{
			OFFSET 0.000000 6.876099 0.125700
			CHANNELS 3 Xrotation Yrotation Zrotation
			JOINT Spine1
			{
				OFFSET 0.000000 5.730043 0.104720
				CHANNELS 3 Xrotation Yrotation Zrotation
				JOINT Spine1_split
				{
					OFFSET 0.000000 5.730043 0.104720
					CHANNELS 3 Xrotation Yrotation Zrotation
					JOINT Spine2
					{
						OFFSET 0.000000 5.730043 0.104720
						CHANNELS 3 Xrotation Yrotation Zrotation
						JOINT Neck_virtual
						{
							OFFSET 0.000000 0.000000 0.000000
							CHANNELS 3 Xrotation Yrotation Zrotation
							JOINT Neck
							{
								OFFSET 0.000000 10.314075 0.188496
								CHANNELS 3 Xrotation Yrotation Zrotation
								JOINT Head
								{
									OFFSET 0.000000 7.643700 -2.377400
									CHANNELS 3 Xrotation Yrotation Zrotation
									JOINT HeadTop_End
									{
										OFFSET 0.000000 43.788605 -13.619600
										CHANNELS 3 Xrotation Yrotation Zrotation
										End Site
										{
											OFFSET 0 0 0
										}
									}
								}
							}
						}
						JOINT LeftShoulder_virtual
						{
							OFFSET 0.000000 0.000000 0.000000
							CHANNELS 3 Xrotation Yrotation Zrotation
							JOINT LeftShoulder
							{
								OFFSET 2.196100 4.412489 0.087492
								CHANNELS 3 Xrotation Yrotation Zrotation
								JOINT LeftShoulder_split
								{
									OFFSET 2.196100 4.412489 0.087492
									CHANNELS 3 Xrotation Yrotation Zrotation
									JOINT LeftArm
									{
										OFFSET 8.771219 -2.981674 -0.026999
										CHANNELS 3 Xrotation Yrotation Zrotation
										JOINT LeftForeArm
										{
											OFFSET 8.512804 0.000000 -0.000000
											CHANNELS 3 Xrotation Yrotation Zrotation
											JOINT LeftHand
											{
												OFFSET 18.484802 0.000000 -0.000000
												CHANNELS 3 Xrotation Yrotation Zrotation
												End Site
												{
													OFFSET 0 0 0
												}
											}
										}
									}
								}
							}
						}
						JOINT RightShoulder_virtual
						{
							OFFSET 0.000000 0.000000 0.000000
							CHANNELS 3 Xrotation Yrotation Zrotation
							JOINT RightShoulder
							{
								OFFSET -2.196100 4.412496 0.070690
								CHANNELS 3 Xrotation Yrotation Zrotation
								JOINT RightShoulder_split
								{
									OFFSET -2.196100 4.412496 0.070690
									CHANNELS 3 Xrotation Yrotation Zrotation
									JOINT RightArm
									{
										OFFSET -8.771282 -2.981682 -0.094208
										CHANNELS 3 Xrotation Yrotation Zrotation
										JOINT RightForeArm
										{
											OFFSET -8.494598 0.000000 0.000000
											CHANNELS 3 Xrotation Yrotation Zrotation
											JOINT RightHand
											{
												OFFSET -18.483803 0.000000 0.000001
												CHANNELS 3 Xrotation Yrotation Zrotation
												End Site
												{
													OFFSET 0 0 0
												}
											}
										}
									}
								}
							}
						}
					}
				}
			}
		}
	}
}
MOTION
Frames: 10
Frame Time: 0.03333333
3.064292 76.473557 29.697586 0.000000 0.000000 0.000000 7.955939 17.936949 0.555042 -25.055540 17.959784 15.584192 59.007719 -9.420993 0.283168 -18.714952 3.205595 -15.539649 -1.464843 0.425414 4.768268 0.000000 0.000000 0.000000 13.521591 16.405577 -1.897936 -72.352904 8.259679 -17.820892 19.715170 7.725121 2.131980 22.982989 13.774622 19.901920 2.434843 -0.552172 -1.086993 0.000000 0.000000 0.000000 6.578191 13.919169 1.316931 4.379702 -2.738315 -2.554816 17.337949 -3.516116 1.202878 1.828949 0.538082 0.234292 0.000000 0.000000 0.000000 16.002937 -3.175105 1.373130 -3.596809 1.056286 -7.704137 -4.568666 -6.386563 14.971903 0.000000 0.000000 0.000000 16.310234 -3.133772 1.243812 -1.231931 7.445576 4.956290 -0.394285 1.085081 -0.066973 -106.435828 -51.582156 -114.504740 -4.336960 -83.659374 -2.933781 0.000000 0.000000 0.000000 17.219742 -3.189406 1.450336 2.849765 12.859398 2.432569 -1.310459 2.420440 0.440526 -33.892164 41.044396 60.473580 -0.517994 55.241720 -0.683584 0.000000 0.000000 0.000000 
2.996812 74.402870 31.969397 0.000000 0.000000 0.000000 6.020641 18.723698 0.598649 -27.081616 17.858868 16.278766 59.429428 -8.838061 -1.321103 -14.249978 4.683751 -16.386546 -0.676123 0.564578 3.761032 0.000000 0.000000 0.000000 10.906311 15.989464 -1.797525 -69.567095 5.686156 -19.676400 21.383509 9.150445 2.389026 25.094875 18.499829 18.145861 1.982446 -0.377082 -1.078068 0.000000 0.000000 0.000000 4.462227 14.316591 1.155269 5.281570 -2.799480 -2.492596 17.585758 -2.914506 1.426245 1.298576 -0.075601 0.179630 0.000000 0.000000 0.000000 16.748645 -2.482641 1.617888 -4.862912 0.336107 -7.233374 -4.318654 -6.425244 14.225601 0.000000 0.000000 0.000000 16.588446 -2.427602 1.487097 -1.193481 5.819200 4.394007 0.974452 2.325594 -0.555364 -104.811910 -51.309809 -112.384493 -8.958367 -83.085310 -7.059403 0.000000 0.000000 0.000000 17.765006 -2.450361 1.936570 2.765703 13.077172 3.042745 -1.766470 2.370085 -0.341435 -36.377065 40.409527 60.040744 -0.560476 53.350700 -0.753932 0.000000 0.000000 0.000000 
2.830960 71.803741 34.200783 0.000000 0.000000 0.000000 3.938121 18.187684 0.837133 -27.789215 17.856872 16.852957 58.574534 -7.495500 -3.082386 -8.496392 6.172381 -15.367191 0.272388 0.806105 1.684389 0.000000 0.000000 0.000000 8.156226 14.720623 -1.468939 -65.569761 2.603328 -21.565334 21.913246 10.629690 2.691179 28.558582 23.106054 18.978186 -1.438991 -0.485817 -1.155516 0.000000 0.000000 0.000000 2.885289 14.561103 0.899560 6.019550 -2.821572 -2.461485 17.666996 -2.439330 1.508189 0.718380 -0.577898 0.084933 0.000000 0.000000 0.000000 17.143737 -1.973033 1.711595 -5.900942 -0.260105 -6.870592 -4.229329 -6.135661 13.106722 0.000000 0.000000 0.000000 16.644428 -1.846437 1.473697 -1.072188 3.888051 3.955577 1.547891 3.395095 -0.643407 -102.666226 -50.292370 -109.522042 -9.802264 -81.332513 -7.627553 0.000000 0.000000 0.000000 18.004399 -1.769371 2.153265 2.571230 13.122494 3.405608 -1.735016 1.708345 -0.774176 -38.766924 39.179324 60.773391 -0.764167 55.244984 -0.664070 0.000000 0.000000 0.000000 
2.751305 68.611176 36.335960 0.000000 0.000000 0.000000 1.791856 16.982248 1.217260 -27.273418 17.647534 17.002072 56.485439 -6.519456 -4.146096 -2.076540 6.773006 -14.477175 0.687830 0.964844 -0.746139 0.000000 0.000000 0.000000 5.459603 13.317366 -0.924187 -60.235438 -0.911900 -22.498322 21.037326 11.349683 2.804403 29.932088 25.504655 20.634343 -3.934822 -0.934249 -0.653826 0.000000 0.000000 0.000000 1.585945 14.267668 0.937670 6.387045 -2.626221 -2.317297 17.518144 -2.019437 1.238390 0.685843 -0.721629 0.064054 0.000000 0.000000 0.000000 17.013467 -1.652847 1.429217 -6.374229 -0.607117 -6.708046 -3.812894 -5.424545 11.796411 0.000000 0.000000 0.000000 16.400102 -1.454387 1.032843 -0.901232 2.224831 3.645161 1.893149 3.600652 -0.274134 -100.145572 -49.090687 -106.304183 -8.468554 -78.389453 -6.303562 0.000000 0.000000 0.000000 17.867346 -1.232727 1.883080 2.345995 13.222540 3.456682 -1.415769 0.855760 -0.892463 -40.548111 37.720259 62.558789 -1.038473 60.443076 -0.439996 0.000000 0.000000 0.000000 
2.837639 64.815590 38.347237 0.000000 0.000000 0.000000 -0.333270 15.774604 1.702834 -25.937756 17.011734 16.440021 52.646931 -6.723414 -4.267486 4.057762 5.743454 -14.596213 0.528615 0.917809 -2.870989 0.000000 0.000000 0.000000 2.880992 12.464603 -0.151270 -53.598718 -4.324478 -22.132816 20.294128 9.977219 2.571209 28.269400 23.292291 19.479980 -1.610500 -1.372350 1.081887 0.000000 0.000000 0.000000 0.264584 13.603204 1.338979 6.302727 -2.229982 -2.000203 17.065899 -1.678687 0.570091 0.847256 -0.647067 -0.069477 0.000000 0.000000 0.000000 16.190653 -1.474946 0.776996 -5.869869 -0.713993 -6.899480 -2.731954 -4.380729 10.520207 0.000000 0.000000 0.000000 15.876983 -1.265656 0.229565 -0.705392 1.183183 3.563654 1.387664 3.413650 0.180985 -96.860210 -48.177006 -102.630477 -6.809655 -74.644624 -4.942362 0.000000 0.000000 0.000000 17.231305 -0.860862 1.140976 2.256281 13.493183 3.053674 -0.870830 0.102924 -0.692159 -41.336950 36.405376 65.191150 -1.346812 67.273047 -0.073427 0.000000 0.000000 0.000000 
3.050181 60.500244 40.240837 0.000000 0.000000 0.000000 -2.365939 15.176185 2.270381 -24.508414 16.078586 15.578611 47.414326 -8.001829 -3.848301 9.890371 3.089472 -15.873372 0.883008 0.648518 -4.576651 0.000000 0.000000 0.000000 0.484047 12.583846 0.871185 -46.733797 -7.005887 -20.829779 20.275616 6.829215 2.111835 25.238203 17.284139 15.088824 3.287725 -1.407473 3.401623 0.000000 0.000000 0.000000 -1.044754 12.945697 1.958793 5.619186 -1.662587 -1.505562 16.165951 -1.409919 -0.272651 0.699965 -0.346098 -0.068302 0.000000 0.000000 0.000000 14.588632 -1.358449 -0.063472 -4.220006 -0.622042 -7.329372 -0.762213 -3.168803 9.565146 0.000000 0.000000 0.000000 15.025122 -1.210653 -0.665891 -0.567007 1.044437 3.705917 0.433410 2.664302 0.880441 -92.683857 -48.010995 -98.638969 -5.325403 -71.671012 -4.058303 0.000000 0.000000 0.000000 16.077485 -0.614835 0.167843 2.367511 13.921228 2.250651 -0.118236 -0.519333 -0.224340 -40.829010 35.367126 68.056729 -1.762901 73.326097 0.482144 0.000000 0.000000 0.000000 
3.458625 55.745216 42.120083 0.000000 0.000000 0.000000 -3.903144 14.847708 2.657963 -23.960905 14.773409 14.758753 42.362934 -9.353135 -3.328554 15.634837 -0.146684 -17.629777 2.439030 0.234971 -6.158143 0.000000 0.000000 0.000000 -1.723463 13.596017 1.790621 -41.023503 -7.796192 -19.601671 21.128528 4.740218 1.523159 23.387924 11.637316 12.433077 4.021086 -1.191744 4.503301 0.000000 0.000000 0.000000 -2.593877 12.705114 2.568753 4.521183 -1.150741 -1.001806 14.899682 -1.194860 -0.904611 0.713483 -0.688584 0.118306 0.000000 0.000000 0.000000 12.476966 -1.193248 -0.703160 -1.905367 -0.426163 -7.815272 1.791281 -2.290070 9.161907 0.000000 0.000000 0.000000 13.909192 -1.160957 -1.185027 -0.478975 1.691587 4.134621 -0.478170 2.037532 1.191801 -87.352164 -48.544070 -94.363858 -4.198244 -70.653676 -3.620361 0.000000 0.000000 0.000000 14.461042 -0.482283 -0.590392 2.600282 14.354679 1.355642 0.479114 -0.978760 0.568105 -39.200231 34.417569 70.793039 -1.959929 76.732135 0.906634 0.000000 0.000000 0.000000 
3.934609 50.716000 44.073898 0.000000 0.000000 0.000000 -4.863487 14.635419 2.365348 -24.554404 13.423839 14.096967 39.211030 -9.556011 -2.851452 19.575952 -2.512199 -18.224300 5.120495 -0.240086 -7.747664 0.000000 0.000000 0.000000 -3.319946 15.193433 2.071187 -36.551423 -6.795119 -18.766691 23.258790 5.279902 1.021197 25.287133 8.960350 15.159636 -3.016648 -1.202658 3.437232 0.000000 0.000000 0.000000 -3.903307 13.136587 2.523363 3.415686 -0.846878 -0.627290 13.522552 -0.958241 -0.931119 0.454092 -1.218692 0.520946 0.000000 0.000000 0.000000 10.276396 -0.850739 -0.738282 0.486368 -0.311046 -8.176828 4.370735 -1.969332 9.311506 0.000000 0.000000 0.000000 12.831175 -0.958902 -0.947259 -0.454453 2.825062 4.842010 -1.259273 1.909241 1.091423 -82.071013 -48.862627 -90.483006 -3.288785 -72.205700 -3.362574 0.000000 0.000000 0.000000 12.730828 -0.287752 -0.710808 2.936678 14.645713 0.523334 1.091969 -1.520728 1.304373 -36.929938 33.380897 72.922856 -1.465885 76.549728 0.780781 0.000000 0.000000 0.000000 
4.394148 45.638672 46.056950 0.000000 0.000000 0.000000 -4.803199 14.264310 0.937448 -27.026881 12.110257 13.649823 40.123274 -8.296417 -2.015511 20.169337 -3.269414 -16.850106 7.790483 -0.720929 -9.135631 0.000000 0.000000 0.000000 -3.949794 17.312151 1.158683 -33.039746 -4.866965 -17.444735 25.928942 8.028832 0.594398 28.576936 9.278353 22.683956 -15.673800 -1.117502 0.193849 0.000000 0.000000 0.000000 -4.575554 13.822635 1.189039 2.656518 -0.731532 -0.408642 12.489344 -0.486260 -0.110921 0.239290 -1.602092 0.997459 0.000000 0.000000 0.000000 8.650552 -0.216984 0.003253 2.175805 -0.293909 -8.309049 6.179873 -2.361638 9.879538 0.000000 0.000000 0.000000 12.006606 -0.423295 0.191852 -0.523697 4.027802 5.567609 -0.764684 2.259859 0.649488 -78.910705 -48.218540 -88.024862 -2.221086 -75.934833 -2.838805 0.000000 0.000000 0.000000 11.354059 0.103426 0.029972 3.281646 14.758956 0.074971 1.526967 -2.045752 1.730723 -35.106168 31.861480 74.063102 -0.336875 72.121129 0.178142 0.000000 0.000000 0.000000 
4.624797 40.648842 48.218609 0.000000 0.000000 0.000000 -3.858861 14.047125 -1.890885 -32.183640 10.530069 13.232533 45.678311 -5.930051 -0.842357 15.691412 -2.957041 -13.373871 8.326258 -1.000819 -9.704887 0.000000 0.000000 0.000000 -3.279409 20.511613 -1.422793 -29.437726 -2.259003 -14.674050 28.761015 11.165104 0.299132 27.163956 9.539144 30.699378 -25.978865 -0.426005 -3.700444 0.000000 0.000000 0.000000 -4.478967 14.427998 -1.756979 2.778533 -0.726804 -0.309230 12.281990 0.416311 1.439154 0.844084 -2.012956 1.542376 0.000000 0.000000 0.000000 8.273901 0.853975 1.470288 2.550662 -0.452862 -8.303900 6.439132 -3.442825 10.487627 0.000000 0.000000 0.000000 11.864227 0.603196 2.072997 -0.615001 4.844068 6.174167 0.557278 3.342296 -0.340325 -79.406857 -45.997291 -87.189708 -0.647527 -79.992266 -1.579458 0.000000 0.000000 0.000000 10.827325 0.879609 1.566810 3.593377 14.829353 0.024255 1.647349 -2.365601 1.787881 -35.357892 30.023261 74.178265 0.771746 63.373371 -0.279632 0.000000 0.000000 0.000000 
